<svg id="ea925e1f-b0b3-4a7b-af3b-d5648dc9dec2" data-name="Ebene 1" xmlns="http://www.w3.org/2000/svg" viewBox="0 0 109.23 49.21"><defs><style>.bd8b8ab6-272d-47c8-bd37-11fcbeab0211{fill:#fff;stroke:#fff;stroke-miterlimit:10;}</style></defs><path class="bd8b8ab6-272d-47c8-bd37-11fcbeab0211" d="M-62.59,159h-1c-5.87,0-15.23,0-21.1-.06h0c-2.82,1-7.81,2.77-10.67,3.67-.21.07-.44.12-.75.2-1.61-6.43-3.2-12.81-4.8-19.22h-25.31l-5,7.89.09.15,13.66-3.29,2.76,14.2L-96,164.08V174.6h31.93V164.15l1.83,1.26v11c-.25,0-.5,0-.75,0-11.06,0-22.13,0-33.19,0-2.42,0-4.83-.45-7.25-.71L-118.58,174l-16.11-1.76L-146.78,171c-.11,0-.23,0-.38,0v12h0v1.62h-1.63V155.78l15.47-3.67,6.27-9.86h1c9.82,0,20.58,0,30.39,0h0c3.74,2.64,8.1,5.78,11.85,8.4.3.22.62.41,1,.64l5.92-9.12h20.38l2.31-5,1.06,2.48Q-47,154.28-40.78,169a1.88,1.88,0,0,1,.21.66c0,2.47,0,4.94,0,7.59l-13.81-9.45V141.88l-.2-.07C-57.23,147.51-59.89,153.21-62.59,159Z" transform="translate(149.29 -135.9)"/></svg>